<?xml version="1.0" encoding="UTF-8"?>
<svg id="Capa_1" data-name="Capa 1" xmlns="http://www.w3.org/2000/svg" version="1.1" viewBox="0 0 101.2 100">
  <defs>
    <style>
      .cls-1 {
        fill: #fff;
        stroke-width: 0px;
      }
    </style>
  </defs>
  <path class="cls-1" d="M74.7,38.4h-1.1l-.4-1.6c-.5-2.2-2.5-3.8-4.7-3.8h-2.5v-11.3c0-.5-.4-.8-.8-.8h-25.6s0,0,0,0c0,0-.1,0-.2,0,0,0,0,0,0,0,0,0-.2,0-.2.2l-12.1,12.1c0,0-.1.2-.2.2,0,0,0,0,0,0,0,0,0,.1,0,.2,0,0,0,0,0,0v4.5h-.2c-2.3,0-4.2,1.9-4.2,4.2v32.3c0,2.3,1.9,4.2,4.2,4.2h48.3c2.3,0,4.2-1.9,4.2-4.2v-32.3c0-2.3-1.9-4.2-4.2-4.2ZM68.6,34.7c1.5,0,2.8,1,3.1,2.5l.5,2.2c0,.4.4.7.8.7h1.7c1.4,0,2.5,1.1,2.5,2.5v1.7s0,0-.1,0c0,0-.1,0-.2-.1-.1,0-.3-.2-.4-.2,0,0-.2,0-.2-.1-.2,0-.3-.1-.5-.2s-.2,0-.2,0c-.3,0-.5,0-.8,0h-1.1l-.4-1.6c-.5-2.2-2.5-3.8-4.7-3.8h-2.5v-3.4h2.5ZM64.4,33.9v4.2h-3c-2.3,0-4.2,1.5-4.7,3.8l-.4,1.6h-27.9v-8.7h11.3c.5,0,.8-.4.8-.8v-11.3h23.9v11.3ZM34.1,28.4l4.6-4.6v9.3h-9.3l4.6-4.6ZM23.9,42.6c0-1.4,1.1-2.5,2.5-2.5h.2v3.4h-.2c-.3,0-.5,0-.8,0,0,0-.2,0-.2,0-.2,0-.3,0-.5.2,0,0-.2,0-.2.1-.2,0-.3.2-.4.2,0,0-.1,0-.2.1,0,0,0,0-.1,0v-1.7ZM77.2,74.9c0,1.4-1.1,2.5-2.5,2.5H26.4c-1.4,0-2.5-1.1-2.5-2.5v-27.3c0-1.4,1.1-2.5,2.5-2.5h30.5c.4,0,.7-.3.8-.7l.5-2.2c.3-1.4,1.6-2.5,3.1-2.5h7.3c1.5,0,2.8,1,3.1,2.5l.5,2.2c0,.4.4.7.8.7h1.7c1.4,0,2.5,1.1,2.5,2.5v27.3Z"/>
  <path class="cls-1" d="M46.3,67.8h-17.5c-.5,0-.8.4-.8.8v4.1c0,.5.4.8.8.8h17.5c.5,0,.8-.4.8-.8v-4.1c0-.5-.4-.8-.8-.8ZM45.5,71.8h-15.9v-2.4h15.9v2.4Z"/>
  <path class="cls-1" d="M73.2,67.8h-4c-.5,0-.8.4-.8.8v4.1c0,.5.4.8.8.8h4c.5,0,.8-.4.8-.8v-4.1c0-.5-.4-.8-.8-.8ZM72.3,71.8h-2.4v-2.4h2.4v2.4Z"/>
</svg>