<?xml version="1.0" encoding="UTF-8"?>
<svg id="Capa_1" data-name="Capa 1" xmlns="http://www.w3.org/2000/svg" version="1.1" viewBox="0 0 101.2 100">
  <defs>
    <style>
      .cls-1 {
        fill: #fff;
        stroke-width: 0px;
      }
    </style>
  </defs>
  <path class="cls-1" d="M78.1,26.7h-9.5v-8.1c0-.5-.4-.8-.8-.8h-26.4s0,0,0,0c0,0-.1,0-.2,0,0,0,0,0,0,0,0,0-.2,0-.2.2l-12.5,12.5s0,0,0,0c0,0-.1.1-.2.2,0,0,0,0,0,0,0,0,0,.1,0,.2,0,0,0,0,0,0v12.6h-4.9c-.5,0-.8.4-.8.8v33.1c0,.5.4.8.8.8h52.8c.5,0,.8-.4.8-.8v-33.1c0-.5-.4-.8-.8-.8h-3v-6.4h5.2c.5,0,.8-.4.8-.8v-8.8c0-.5-.4-.8-.8-.8ZM40.5,20.5v9.6h-9.6l9.6-9.6ZM29.6,31.9h11.7c.5,0,.8-.4.8-.8v-11.7h24.7v7.3h-8c-.2,0-.4,0-.6.2l-4.4,3.9c-.2.2-.3.4-.3.6v5c0,.5.4.8.8.8h7.7v6.4H29.6v-11.7ZM33.7,50.4v-5.2h10.4v5.2h-10.4ZM23.9,58.6v-6.4h13.9v6.4h-13.9ZM28.8,45.3h3.2v5.2h-8.1v-5.2h4.9ZM23.9,69.2h7.3v7.4h-7.3v-7.4ZM53.2,76.6v-7.4h4.9c.5,0,.8-.4.8-.8s-.4-.8-.8-.8h-9.4c-.5,0-.8.4-.8.8s.4.8.8.8h2.9v7.4h-18.6v-7.4h6.6c.5,0,.8-.4.8-.8s-.4-.8-.8-.8h-15.7v-7.3h23.3c.5,0,.8-.4.8-.8s-.4-.8-.8-.8h-7.7v-6.4h7.7c.5,0,.8-.4.8-.8s-.4-.8-.8-.8h-1.5v-5.2h16.4v13.3h-8.7c-.5,0-.8.4-.8.8s.4.8.8.8h8.7v6c0,.5.4.8.8.8h9c.5,0,.8-.4.8-.8v-15.1h2.1v25.4h-21.7ZM75,45.3v4.2h-2.1v-4.2h2.1ZM71.2,44.4v21h-7.3v-28.2h7.3v7.3ZM77.2,35.5h-21.9v-3.7l3.9-3.4h18v7.1Z"/>
</svg>