<?xml version="1.0" encoding="UTF-8"?>
<svg id="Capa_1" data-name="Capa 1" xmlns="http://www.w3.org/2000/svg" version="1.1" viewBox="0 0 101.2 100">
  <defs>
    <style>
      .cls-1 {
        fill: #fff;
        stroke-width: 0px;
      }
    </style>
  </defs>
  <path class="cls-1" d="M74.2,37.9l-1.9,1.9v-23.4c0-.5-.4-.9-.9-.9h-28.4s0,0,0,0c0,0-.2,0-.2,0,0,0,0,0,0,0,0,0-.2.1-.3.2l-2.5,2.5h-16.6c-.5,0-.9.4-.9.9v51c0,.5.4.9.9.9h5.4v4.5c0,.5.4.9.9.9h6.1l-3.1,3.1c-1.1,1.1-1.1,2.9,0,3.9s1.3.8,2,.8,1.4-.3,2-.8l6.3-6.3,1.2,1.2c.8.8,1.9,1.2,3,1.2s2.2-.4,3-1.2l1.9-1.9h19.4c.5,0,.9-.4.9-.9v-19.4l1.3-1.3c.8-.8,1.2-1.9,1.2-3s-.4-2.2-1.2-3l-1.2-1.2,5.8-5.8c1.1-1.1,1.1-2.9,0-3.9s-2.9-1.1-3.9,0ZM42,18.7v10.3h-10.3l9.1-9.1,1.2-1.2ZM24.1,69.3V20.2h13.8l-9.1,9.1c0,0-.1.2-.2.3,0,0,0,0,0,0,0,0,0,.2,0,.2,0,0,0,0,0,0v39.4h-4.4ZM30.4,74.7V30.9h12.5c.5,0,.9-.4.9-.9v-12.5h26.5v24.3l-2,2-1.2-1.2c-1.7-1.7-4.4-1.7-6,0l-7.5,7.5c-1.7,1.7-1.7,4.4,0,6l1.2,1.2-2.6,2.6-1.2-1.2c-.2-.2-.4-.4-.7-.5,0,0-.1,0-.2,0-.2-.1-.4-.2-.6-.3,0,0,0,0-.1,0-.5-.2-1-.3-1.5-.3s-1,.1-1.5.3c0,0,0,0-.1,0-.2,0-.4.2-.6.3,0,0-.1,0-.2,0-.2.2-.5.3-.7.5l-7.5,7.5c-.8.8-1.2,1.9-1.2,3s.4,2.2,1.2,3l1.2,1.2-1.4,1.4h-7ZM50.4,68.3c0,.5-.3,1-.7,1.4l-1.1,1.1c-.5.5-1.2.8-1.9.7,0,0,0,0,0-.1,0,0,0,0,0-.1,0,0,0,0,0,0,0,0,0,0,0,0,0,0,0,0,0,0,0,0,0,0,0,0,0,0,0,0,0,0,0,0,0,0,0,0,0,0,0-.1,0-.2,0,0,0-.2-.1-.2,0,0,0,0,0,0,0,0,0,0,0,0,0,0,0,0,0,0t0,0s0,0,0,0h0s0,0,0,0h0s0,0,0,0c0-.1-.2-.2-.3-.4,0,0,0,0,0,0,0,0,0,0,0,0-.1-.1-.2-.2-.4-.3,0,0,0,0-.1,0,0,0-.2-.1-.3-.1,0,0-.1,0-.2,0,0,0,0,0,0,0,0,0,0,0,0,0,0,0,0,0,0,0,0,0-.1,0-.2,0,0,0,0,0,0,0,0-.7.2-1.4.7-1.9l1.1-1.1c.4-.4.9-.6,1.4-.7,0,.1,0,.2,0,.3,0,0,0,0,0,.1,0,.1,0,.3.1.4,0,0,0,0,0,0,0,.1.1.3.2.4,0,0,0,0,0,0,.1.2.2.3.4.4.1.1.3.2.4.3,0,0,0,0,.1,0,0,0,0,0,0,0,0,0,0,0,0,0,0,0,0,0,.1,0,0,0,.1,0,.2,0,0,0,0,0,.1,0,.1,0,.3,0,.4.1,0,0,.1,0,.2,0,0,0,.2,0,.3,0ZM49.7,59.9l1.2,1.2-2.4,2.4c0,0-.1.1-.2.2-1.2-.1-2.5.3-3.4,1.2l-1.1,1.1c-.9.9-1.3,2.2-1.2,3.5-.3.1-.5.3-.7.5l-1.9,1.9-1.2-1.2c-.5-.5-.7-1.1-.7-1.7s.3-1.2.7-1.7l7.5-7.5c.9-.9,2.5-.9,3.4,0ZM50.9,66.4s0,0-.1,0c0,0-.1,0-.2,0,0,0,0,0-.1,0,0,0-.1,0-.2,0,0,0,0,0-.1,0,0,0-.2,0-.3-.2,0,0,0,0,0,0,0,0-.1-.2-.2-.3,0,0,0,0,0,0,0,0,0-.1,0-.2,0,0,0,0,0-.1,0,0,0-.1,0-.2,0,0,0,0,0-.1,0-.1.1-.2.2-.3l8.3-8.3,1.3-1.3s0,0,0,0c.1,0,.2-.2.3-.2,0,0,.2,0,.3,0,0,0,0,0,0,0,.1,0,.2,0,.3,0,0,0,0,0,0,0,.1,0,.2.1.3.2,0,0,.1.2.2.3,0,0,0,0,0,0,0,0,0,.2,0,.3,0,0,0,0,0,0,0,0,0,.2,0,.3,0,0,0,0,0,.1,0,0,0,.2-.1.2l-2.6,2.6-3.9,3.9-3.1,3.1c0,0-.2.1-.3.2ZM62.8,55.4c0,0,0-.1,0-.2,0,0,0,0,0,0,0,0,0,0,0,0,0,0,0,0,0,0,0,0,0-.1,0-.2,0,0,0-.1-.1-.2,0,0,0,0,0,0,0,0,0,0,0,0,0,0,0,0,0,0,0-.1-.2-.2-.3-.4,0,0,0,0,0,0,0,0,0,0,0,0-.1-.1-.2-.2-.4-.3,0,0,0,0,0,0,0,0,0,0,0,0,0,0,0,0,0,0,0,0,0,0,0,0,0,0,0,0,0,0-.1,0-.2-.1-.3-.2,0,0,0,0,0,0,0,0,0,0-.1,0,0,0,0,0,0,0,0,0,0,0,0,0,0,0-.2,0-.3,0,0-.7.2-1.4.7-1.9l1.1-1.1c.4-.4.8-.6,1.3-.7,0,.7.3,1.4.8,1.9.5.5,1.2.8,1.9.8,0,.5-.3,1-.7,1.3l-1.1,1.1c-.5.5-1.2.8-1.9.7ZM64.6,47.4h0c0,.1,0,.2-.1.2-1.2-.1-2.5.3-3.3,1.2l-1.1,1.1c-.9.9-1.3,2.2-1.2,3.5,0,0-.1,0-.2,0,0,0,0,0-.1,0-.1,0-.3.2-.4.3,0,0,0,0,0,0l-1.9,1.9-1.2-1.2c-.1-.1-.2-.2-.3-.4,0,0,0,0,0,0,0-.1-.1-.2-.2-.3,0,0,0,0,0,0-.2-.6-.2-1.2,0-1.7,0,0,0,0,0,0,0-.1.1-.2.2-.3,0,0,0,0,0,0,0-.1.2-.3.3-.4l7.5-7.5c.9-.9,2.5-.9,3.4,0l1.2,1.2-2.4,2.4ZM35,82.3c-.4.4-1,.4-1.3,0-.4-.4-.4-1,0-1.3l4.7-4.7,2.3-2.3s0,0,0,0l2.6-2.6c.2-.2.4-.2.6-.3,0,0,0,0,.1,0,0,0,.2,0,.2,0,0,0,0,0,0,0,0,0,.2,0,.3.2,0,0,.1.2.2.3,0,0,0,0,0,0,0,0,0,.2,0,.3,0,0,0,0,0,.1,0,0,0,0,0,0,0,0,0,.1,0,.2,0,0,0,0,0,0,0,0,0,.2-.2.3,0,0,0,0,0,0l-2.3,2.3s0,0,0,0l-7.3,7.3ZM48.6,77.2c-.9.9-2.5.9-3.4,0l-1.2-1.2,1.9-1.9s0,0,0,0c.1-.1.2-.2.3-.4,0,0,0,0,0-.1,0,0,0-.1.1-.2.2,0,.3,0,.5,0,1.1,0,2.2-.4,3-1.2l1.1-1.1c.9-.9,1.3-2.1,1.2-3.4,0,0,.1-.1.2-.2l2.4-2.4,1.2,1.2c.9.9.9,2.5,0,3.4l-5.3,5.3s0,0,0,0l-2.2,2.2ZM70.4,58.1v16.7h-16.7l3.7-3.7c1.7-1.7,1.7-4.4,0-6l-1.2-1.2,2.6-2.6,1.2,1.2c.8.8,1.9,1.2,3,1.2s2.2-.4,3-1.2l4.3-4.3ZM72.2,53.6l-7.5,7.5c-.9.9-2.5.9-3.4,0l-1.2-1.2,1.9-1.9h0c.1-.1.2-.3.3-.4,0,0,0-.1.1-.2,0,0,0,0,0-.1.2,0,.3,0,.5,0,1.1,0,2.2-.4,3-1.2l1.1-1.1c.9-.9,1.3-2.1,1.2-3.3,0,0,.1,0,.2-.1h0c0,0,0,0,0,0l2.4-2.4,1.2,1.2c.5.5.7,1.1.7,1.7s-.3,1.2-.7,1.7ZM76.8,40.5l-6.2,6.2-.3.3-3.1,3.1c0,0-.2.1-.3.2,0,0,0,0-.1,0,0,0-.1,0-.2,0,0,0,0,0-.1,0,0,0-.1,0-.2,0,0,0,0,0-.1,0,0,0-.2-.1-.3-.2,0,0-.1-.2-.2-.3,0,0,0,0,0,0,0,0,0-.1,0-.2,0,0,0,0,0-.1,0,0,0-.1,0-.2,0,0,0,0,0-.1,0-.1.1-.2.2-.3l3.1-3.1,2.9-2.9,3.5-3.5c.2-.2.4-.3.7-.3s.5,0,.7.3c.4.4.4,1,0,1.3Z"/>
</svg>