<?xml version="1.0" encoding="UTF-8"?>
<svg id="Capa_1" data-name="Capa 1" xmlns="http://www.w3.org/2000/svg" version="1.1" viewBox="0 0 101.2 100">
  <defs>
    <style>
      .cls-1 {
        fill: #fff;
        stroke-width: 0px;
      }
    </style>
  </defs>
  <path class="cls-1" d="M62.6,35.4c-.3.3-.5.7-.5,1.1s.2.8.5,1.1c.3.3.7.5,1.1.5s.8-.2,1.1-.5c.3-.3.5-.7.5-1.1s-.2-.8-.5-1.1c-.6-.6-1.6-.6-2.2,0ZM64.2,36.9c-.2.2-.6.2-.8,0-.2-.2-.2-.6,0-.8.1-.1.3-.2.4-.2s.3,0,.4.2c.2.2.2.6,0,.8Z"/>
  <path class="cls-1" d="M63.8,33c-1,0-2,.5-2.7,1.3l-6.9,7.7-2.4,2.6-2.6-2.6c-1.1-1.1-2.5-1.6-3.9-1.6s-2.9.6-3.9,1.6l-3.8,3.8-3.8,3.8c-.2.2-.2.5,0,.7l16.6,16.6c0,0,.2.1.4.1s.3,0,.4-.1l3.8-3.8s0,0,0,0l3.8-3.8c2.2-2.2,2.2-5.7,0-7.9l-2.6-2.6,2.6-2.4,7.7-6.9c.8-.7,1.2-1.6,1.3-2.7,0-1-.4-2-1.1-2.8-.7-.7-1.7-1.1-2.8-1.1ZM50.6,65.8l-1.7-1.7,1.1-1.1c.2-.2.2-.5,0-.7s-.5-.2-.7,0l-1.1,1.1-1.3-1.3,1.1-1.1c.2-.2.2-.5,0-.7s-.5-.2-.7,0l-1.1,1.1-1.3-1.3,1.1-1.1c.2-.2.2-.5,0-.7s-.5-.2-.7,0l-1.1,1.1-1.3-1.3,1.1-1.1c.2-.2.2-.5,0-.7s-.5-.2-.7,0l-1.1,1.1-1.3-1.3,1.1-1.1c.2-.2.2-.5,0-.7-.2-.2-.5-.2-.7,0l-1.1,1.1-1.3-1.3,1.1-1.1c.2-.2.2-.5,0-.7s-.5-.2-.7,0l-1.1,1.1-1.3-1.3,1.1-1.1c.2-.2.2-.5,0-.7s-.5-.2-.7,0l-1.1,1.1-1.3-1.3,3.1-3.1,15.9,15.9-3.1,3.1ZM57.9,58.6l-2,2-9.3-9.3c-.2-.2-.5-.2-.7,0s-.2.5,0,.7l9.3,9.3-.8.8-15.9-15.9.8-.8,3.7,3.7c0,0,.2.1.4.1s.3,0,.4-.1c.2-.2.2-.5,0-.7l-3.7-3.7,2-2c.9-.9,2-1.3,3.2-1.3s2.4.5,3.2,1.3l3,3,3.4,3.4,3,3c1.8,1.8,1.8,4.7,0,6.5ZM55.3,48l-2.7-2.7,2-2.3,3,3-2.3,2ZM65.7,38.7s0,0,0,0l-7.4,6.6-3-3,6.6-7.4c.5-.6,1.2-.9,1.9-.9.8,0,1.5.3,2,.8.5.5.8,1.3.8,2,0,.8-.4,1.4-.9,1.9Z"/>
</svg>