<?xml version="1.0" encoding="UTF-8"?>
<svg id="Capa_1" data-name="Capa 1" xmlns="http://www.w3.org/2000/svg" version="1.1" viewBox="0 0 188.06 283.57">
  <defs>
    <style>
      .cls-1 {
        fill: #4489c9;
        stroke-width: 0px;
      }
    </style>
  </defs>
  <path class="cls-1" d="M58.08,77.26c-11.22-8.12-17.98-22.18-18.89-33.35-.45-5.64-.05-18.91,13.57-20.3.6-.06,1.17-.09,1.73-.09,11.21,0,14.5,11.84,15.26,15.62,2.17,10.78-.78,27.06-11.67,38.12ZM128.71,0h-6.04c.39,17.64-1.08,52.42-17.06,71.18-6.63,7.78-15.2,12.03-25.5,12.65-6.23.38-11.88-.95-16.85-3.43,10.91-11.78,15.17-28.58,12.38-42.44-2.77-13.73-11.77-21.52-23.49-20.32-12.91,1.32-20.17,11.57-18.94,26.76.88,10.86,6.08,22.47,13.9,31.06,1.98,2.17,4.1,4.12,6.32,5.82-3.4,2.49-7.36,4.53-11.93,5.92-3.95,1.21-7.71,1.74-11.26,1.74-13.04,0-23.29-7.14-30.24-14.2v7.94c7.63,6.52,17.89,12.24,30.38,12.24,4.06,0,8.35-.6,12.87-1.98,5.9-1.8,11.04-4.64,15.4-8.2,6.72,3.77,14.16,5.54,21.82,5.08,11.99-.72,21.99-5.68,29.71-14.76,17.4-20.45,18.99-56.61,18.53-75.06Z"/>
  <path class="cls-1" d="M155.55,71.01c-5.15,25.36,17.29,46.09,32.51,56.93v7.38c-16.14-10.66-44.72-34.38-38.39-65.5,5.02-24.68,26.55-31.75,38.39-33.77v5.99c-10.52,1.87-28.27,8.13-32.51,28.97Z"/>
  <path class="cls-1" d="M49.78,248.68c-10.29,19.03-34.78,29.84-49.78,34.89v-6.4c14.25-5.05,35.68-15.02,44.51-31.35,4.91-9.08,5.31-19.22,1.18-30.14-7.68-20.31-33.14-26.25-45.69-27.95v-6.1c13.43,1.65,42.24,7.96,51.31,31.93,4.77,12.62,4.26,24.44-1.53,35.12Z"/>
</svg>